<svg width="182" height="57" viewBox="0 0 182 57" fill="none" xmlns="http://www.w3.org/2000/svg">
<path d="M14.1134 28.7441C14.3691 28.7441 14.5864 28.8336 14.7654 29.0126C14.9444 29.1916 15.0339 29.4089 15.0339 29.6646C15.0339 29.9075 14.9508 30.1184 14.7846 30.2974C14.6184 30.4636 14.4202 30.5595 14.1901 30.585H10.3358C9.95227 30.585 9.63267 30.6681 9.37699 30.8343C9.1341 30.9877 8.94234 31.1859 8.80172 31.4288C8.66109 31.6589 8.56521 31.9082 8.51408 32.1766C8.46294 32.4451 8.43738 32.6944 8.43738 32.9245V36.1844C8.43738 36.4401 8.34789 36.6574 8.16891 36.8364C7.98994 37.0153 7.77261 37.1048 7.51693 37.1048C7.26126 37.1048 7.04393 37.0153 6.86495 36.8364C6.68598 36.6574 6.59649 36.4401 6.59649 36.1844V32.9245C6.59649 32.5282 6.64763 32.1319 6.7499 31.7356C6.85217 31.3265 7.00558 30.943 7.21012 30.585H0.920441C0.664763 30.585 0.447437 30.4955 0.268462 30.3166C0.0894873 30.1376 0 29.9203 0 29.6646C0 29.4089 0.0894873 29.1916 0.268462 29.0126C0.447437 28.8336 0.664763 28.7441 0.920441 28.7441H14.1134ZM31.9621 36.1844C31.9621 36.4401 31.8727 36.6574 31.6937 36.8364C31.5147 37.0153 31.2974 37.1048 31.0417 37.1048C30.786 37.1048 30.5687 37.0153 30.3897 36.8364C30.2108 36.6574 30.1213 36.4401 30.1213 36.1844V33.8449H18.7883V36.1844C18.7883 36.4401 18.6988 36.6574 18.5198 36.8364C18.3409 37.0153 18.1235 37.1048 17.8679 37.1048C17.6122 37.1048 17.3949 37.0153 17.2159 36.8364C17.0369 36.6574 16.9474 36.4401 16.9474 36.1844V29.6646C16.9474 29.4089 17.0369 29.1916 17.2159 29.0126C17.3949 28.8336 17.6122 28.7441 17.8679 28.7441C18.1235 28.7441 18.3409 28.8336 18.5198 29.0126C18.6988 29.1916 18.7883 29.4089 18.7883 29.6646V32.004H30.1213V29.6646C30.1213 29.4089 30.2108 29.1916 30.3897 29.0126C30.5687 28.8336 30.786 28.7441 31.0417 28.7441C31.2974 28.7441 31.5147 28.8336 31.6937 29.0126C31.8727 29.1916 31.9621 29.4089 31.9621 29.6646V36.1844ZM33.8761 29.6646C33.8761 29.4089 33.9656 29.1916 34.1446 29.0126C34.3236 28.8336 34.5409 28.7441 34.7966 28.7441H48.3923C48.6479 28.7441 48.8653 28.8336 49.0442 29.0126C49.2232 29.1916 49.3127 29.4089 49.3127 29.6646C49.3127 29.9203 49.2232 30.1376 49.0442 30.3166C48.8653 30.4955 48.6479 30.585 48.3923 30.585H34.7966C34.5409 30.585 34.3236 30.4955 34.1446 30.3166C33.9656 30.1376 33.8761 29.9203 33.8761 29.6646ZM36.2156 37.1048C35.9343 37.1048 35.6531 37.0473 35.3719 36.9322C35.0906 36.8044 34.8413 36.6318 34.624 36.4145C34.4067 36.1972 34.2277 35.9351 34.0871 35.6283C33.9464 35.3215 33.8761 34.9763 33.8761 34.5928V32.867C33.8761 32.5218 33.972 32.2917 34.1638 32.1766C34.3683 32.0616 34.6815 32.004 35.1034 32.004H47.9704C48.2261 32.004 48.4434 32.0935 48.6224 32.2725C48.8013 32.4515 48.8908 32.6688 48.8908 32.9245C48.8908 33.1802 48.8013 33.3975 48.6224 33.5765C48.4434 33.7554 48.2261 33.8449 47.9704 33.8449H35.717V34.7845C35.717 34.9124 35.7682 35.0274 35.8704 35.1297C35.9855 35.2192 36.1325 35.2639 36.3115 35.2639H48.3923C48.6479 35.2639 48.8653 35.3534 49.0442 35.5324C49.2232 35.7114 49.3127 35.9287 49.3127 36.1844C49.3127 36.4401 49.2232 36.6574 49.0442 36.8364C48.8653 37.0153 48.6479 37.1048 48.3923 37.1048H36.2156ZM61.7093 30.585V32.004H72.3519C72.5436 32.004 72.7098 31.9401 72.8505 31.8123C73.0039 31.6717 73.0806 31.4991 73.0806 31.2945C73.0806 31.1028 73.0039 30.9366 72.8505 30.796C72.7098 30.6553 72.5436 30.585 72.3519 30.585H61.7093ZM72.2752 28.7441C72.6331 28.7441 72.9655 28.8145 73.2723 28.9551C73.5919 29.0829 73.8668 29.2619 74.0969 29.492C74.3398 29.7221 74.5252 29.9906 74.653 30.2974C74.7936 30.6042 74.8639 30.9366 74.8639 31.2945C74.8639 31.6525 74.7936 31.9849 74.653 32.2917C74.5252 32.5985 74.3398 32.867 74.0969 33.0971C73.8668 33.3272 73.5919 33.5125 73.2723 33.6532C72.9655 33.781 72.6331 33.8449 72.2752 33.8449H61.7093V36.1844C61.7093 36.4401 61.6134 36.6574 61.4217 36.8364C61.2427 37.0153 61.0317 37.1048 60.7889 37.1048C60.5332 37.1048 60.3158 37.0153 60.1369 36.8364C59.9579 36.6574 59.8684 36.4401 59.8684 36.1844V29.6646C59.8684 29.4089 59.9579 29.1916 60.1369 29.0126C60.3158 28.8336 60.5332 28.7441 60.7889 28.7441H72.2752ZM89.1084 33.8449C89.4536 34.0622 89.8051 34.2987 90.1631 34.5544C90.521 34.7973 90.8854 35.0658 91.2561 35.3598C91.3967 35.4621 91.5182 35.5835 91.6204 35.7242C91.7227 35.852 91.7738 36.0054 91.7738 36.1844C91.7738 36.4401 91.6843 36.6574 91.5054 36.8364C91.3264 37.0153 91.1091 37.1048 90.8534 37.1048C90.7511 37.1048 90.6425 37.0792 90.5274 37.0281C90.4123 36.977 90.3037 36.9131 90.2014 36.8364C89.6773 36.4528 89.1404 36.0821 88.5906 35.7242C88.0409 35.3534 87.4657 35.0338 86.8648 34.7654C86.2767 34.4841 85.6631 34.2604 85.0239 34.0942C84.3847 33.928 83.72 33.8449 83.0296 33.8449H79.2136C79.0475 33.8705 78.9068 33.9472 78.7918 34.075C78.6767 34.2029 78.6192 34.3627 78.6192 34.5544V36.1844C78.6192 36.4401 78.5233 36.6574 78.3316 36.8364C78.1526 37.0153 77.9417 37.1048 77.6988 37.1048C77.4431 37.1048 77.2258 37.0153 77.0468 36.8364C76.8678 36.6574 76.7783 36.4401 76.7783 36.1844V34.3435C76.7783 34.0239 76.8358 33.7235 76.9509 33.4422C77.0787 33.1482 77.2449 32.8989 77.4495 32.6944C77.654 32.477 77.8969 32.3108 78.1782 32.1958C78.4594 32.068 78.7662 32.004 79.0986 32.004H89.2618C89.4536 32.004 89.6197 31.9401 89.7604 31.8123C89.9138 31.6717 89.9905 31.4991 89.9905 31.2945C89.9905 31.1028 89.9138 30.9366 89.7604 30.796C89.6197 30.6553 89.4536 30.585 89.2618 30.585H77.6988C77.4431 30.585 77.2258 30.4955 77.0468 30.3166C76.8678 30.1376 76.7783 29.9203 76.7783 29.6646C76.7783 29.4089 76.8678 29.1916 77.0468 29.0126C77.2258 28.8336 77.4431 28.7441 77.6988 28.7441H89.1851C89.543 28.7441 89.8754 28.8145 90.1822 28.9551C90.5018 29.0829 90.7767 29.2619 91.0068 29.492C91.2497 29.7221 91.4351 29.9906 91.5629 30.2974C91.7035 30.6042 91.7738 30.9366 91.7738 31.2945C91.7738 31.6525 91.7035 31.9849 91.5629 32.2917C91.4351 32.5985 91.2497 32.867 91.0068 33.0971C90.7767 33.3272 90.5018 33.5125 90.1822 33.6532C89.8754 33.781 89.543 33.8449 89.1851 33.8449H89.1084ZM95.5291 36.1844C95.5291 36.4401 95.4396 36.6574 95.2606 36.8364C95.0817 37.0153 94.8643 37.1048 94.6087 37.1048C94.353 37.1048 94.1357 37.0153 93.9567 36.8364C93.7777 36.6574 93.6882 36.4401 93.6882 36.1844V29.6646C93.6882 29.4089 93.7777 29.1916 93.9567 29.0126C94.1357 28.8336 94.353 28.7441 94.6087 28.7441C94.8643 28.7441 95.0817 28.8336 95.2606 29.0126C95.4396 29.1916 95.5291 29.4089 95.5291 29.6646V36.1844ZM97.4523 32.9245C97.4523 32.4515 97.529 31.9657 97.6824 31.4671C97.8486 30.9685 98.0851 30.5211 98.3919 30.1248C98.6987 29.7157 99.0694 29.3833 99.5041 29.1277C99.9388 28.872 100.431 28.7441 100.981 28.7441H112.16C112.416 28.7441 112.633 28.8336 112.812 29.0126C112.991 29.1916 113.081 29.4089 113.081 29.6646C113.081 29.9203 112.991 30.1376 112.812 30.3166C112.633 30.4955 112.416 30.585 112.16 30.585H101.383C100.936 30.585 100.572 30.6681 100.29 30.8343C100.022 30.9877 99.8045 31.1795 99.6383 31.4096C99.4849 31.6397 99.3763 31.8954 99.3123 32.1766C99.2612 32.4451 99.2356 32.6944 99.2356 32.9245C99.2356 33.1546 99.2612 33.4103 99.3123 33.6915C99.3763 33.96 99.4849 34.2093 99.6383 34.4394C99.8045 34.6695 100.022 34.8676 100.29 35.0338C100.572 35.1872 100.936 35.2639 101.383 35.2639H112.16C112.416 35.2639 112.633 35.3534 112.812 35.5324C112.991 35.7114 113.081 35.9287 113.081 36.1844C113.081 36.4401 112.991 36.6574 112.812 36.8364C112.633 37.0153 112.416 37.1048 112.16 37.1048H100.789C100.265 37.1048 99.7981 36.977 99.389 36.7213C98.98 36.4656 98.6284 36.1396 98.3344 35.7433C98.0531 35.3342 97.8358 34.8868 97.6824 34.401C97.529 33.9024 97.4523 33.4103 97.4523 32.9245ZM114.999 29.6646C114.999 29.4089 115.088 29.1916 115.267 29.0126C115.446 28.8336 115.664 28.7441 115.919 28.7441H129.515C129.771 28.7441 129.988 28.8336 130.167 29.0126C130.346 29.1916 130.436 29.4089 130.436 29.6646C130.436 29.9203 130.346 30.1376 130.167 30.3166C129.988 30.4955 129.771 30.585 129.515 30.585H115.919C115.664 30.585 115.446 30.4955 115.267 30.3166C115.088 30.1376 114.999 29.9203 114.999 29.6646ZM117.338 37.1048C117.057 37.1048 116.776 37.0473 116.495 36.9322C116.213 36.8044 115.964 36.6318 115.747 36.4145C115.53 36.1972 115.351 35.9351 115.21 35.6283C115.069 35.3215 114.999 34.9763 114.999 34.5928V32.867C114.999 32.5218 115.095 32.2917 115.287 32.1766C115.491 32.0616 115.804 32.004 116.226 32.004H129.093C129.349 32.004 129.566 32.0935 129.745 32.2725C129.924 32.4515 130.014 32.6688 130.014 32.9245C130.014 33.1802 129.924 33.3975 129.745 33.5765C129.566 33.7554 129.349 33.8449 129.093 33.8449H116.84V34.7845C116.84 34.9124 116.891 35.0274 116.993 35.1297C117.108 35.2192 117.255 35.2639 117.434 35.2639H129.515C129.771 35.2639 129.988 35.3534 130.167 35.5324C130.346 35.7114 130.436 35.9287 130.436 36.1844C130.436 36.4401 130.346 36.6574 130.167 36.8364C129.988 37.0153 129.771 37.1048 129.515 37.1048H117.338ZM11.6781 54.6395C12.1127 54.6395 12.4707 54.5628 12.7519 54.4094C13.0332 54.2432 13.2505 54.0451 13.4039 53.815C13.5701 53.5849 13.6788 53.3356 13.7299 53.0671C13.7938 52.7859 13.8258 52.5302 13.8258 52.3001C13.8258 52.07 13.7938 51.8207 13.7299 51.5522C13.6788 51.271 13.5701 51.0153 13.4039 50.7852C13.2505 50.5551 13.0332 50.3633 12.7519 50.2099C12.4707 50.0437 12.1127 49.9606 11.6781 49.9606H3.93105C3.48361 49.9606 3.11927 50.0437 2.83803 50.2099C2.56956 50.3633 2.35224 50.5551 2.18605 50.7852C2.03264 51.0153 1.92398 51.271 1.86006 51.5522C1.80892 51.8207 1.78335 52.07 1.78335 52.3001C1.78335 52.5302 1.80892 52.7859 1.86006 53.0671C1.92398 53.3356 2.03264 53.5849 2.18605 53.815C2.35224 54.0451 2.56956 54.2432 2.83803 54.4094C3.11927 54.5628 3.48361 54.6395 3.93105 54.6395H11.6781ZM15.6091 52.3001C15.6091 52.7859 15.526 53.278 15.3599 53.7766C15.2064 54.2624 14.9763 54.7098 14.6695 55.1189C14.3627 55.5152 13.992 55.8412 13.5573 56.0969C13.1227 56.3526 12.6305 56.4804 12.0808 56.4804H3.3366C2.81246 56.4804 2.34585 56.3526 1.93676 56.0969C1.52768 55.8412 1.17612 55.5152 0.882089 55.1189C0.600843 54.7098 0.383517 54.256 0.23011 53.7574C0.0767034 53.2589 0 52.7731 0 52.3001C0 51.8271 0.0767034 51.3413 0.23011 50.8427C0.396301 50.3441 0.632803 49.8967 0.939617 49.5004C1.24643 49.0913 1.61716 48.7589 2.05182 48.5033C2.48647 48.2476 2.97865 48.1197 3.52836 48.1197H12.2725C12.7839 48.1197 13.2441 48.2476 13.6532 48.5033C14.0751 48.7589 14.4266 49.0913 14.7079 49.5004C15.0019 49.8967 15.2256 50.3441 15.379 50.8427C15.5324 51.3413 15.6091 51.8271 15.6091 52.3001ZM17.5279 49.0402C17.5279 48.7845 17.6174 48.5672 17.7964 48.3882C17.9754 48.2092 18.1927 48.1197 18.4484 48.1197H32.044C32.2997 48.1197 32.517 48.2092 32.696 48.3882C32.875 48.5672 32.9645 48.7845 32.9645 49.0402C32.9645 49.2959 32.875 49.5132 32.696 49.6922C32.517 49.8711 32.2997 49.9606 32.044 49.9606H18.4484C18.1927 49.9606 17.9754 49.8711 17.7964 49.6922C17.6174 49.5132 17.5279 49.2959 17.5279 49.0402ZM17.5279 52.2426C17.5279 51.8974 17.6238 51.6673 17.8156 51.5522C18.0201 51.4372 18.3333 51.3796 18.7552 51.3796H31.6222C31.8779 51.3796 32.0952 51.4691 32.2742 51.6481C32.4531 51.8271 32.5426 52.0444 32.5426 52.3001C32.5426 52.5558 32.4531 52.7731 32.2742 52.9521C32.0952 53.131 31.8779 53.2205 31.6222 53.2205H19.3688V55.56C19.3688 55.8157 19.2793 56.033 19.1003 56.212C18.9214 56.3909 18.704 56.4804 18.4484 56.4804C18.1927 56.4804 17.9754 56.3909 17.7964 56.212C17.6174 56.033 17.5279 55.8157 17.5279 55.56V52.2426ZM57.6336 48.1197C57.8893 48.1197 58.1066 48.2092 58.2856 48.3882C58.4646 48.5672 58.5541 48.7845 58.5541 49.0402C58.5541 49.2831 58.471 49.494 58.3048 49.673C58.1386 49.8392 57.9404 49.9351 57.7103 49.9606H53.856C53.4725 49.9606 53.1529 50.0437 52.8972 50.2099C52.6543 50.3633 52.4625 50.5615 52.3219 50.8044C52.1813 51.0345 52.0854 51.2838 52.0343 51.5522C51.9831 51.8207 51.9576 52.07 51.9576 52.3001V55.56C51.9576 55.8157 51.8681 56.033 51.6891 56.212C51.5101 56.3909 51.2928 56.4804 51.0371 56.4804C50.7815 56.4804 50.5641 56.3909 50.3852 56.212C50.2062 56.033 50.1167 55.8157 50.1167 55.56V52.3001C50.1167 51.9038 50.1678 51.5075 50.2701 51.1112C50.3724 50.7021 50.5258 50.3186 50.7303 49.9606H44.4406C44.185 49.9606 43.9676 49.8711 43.7887 49.6922C43.6097 49.5132 43.5202 49.2959 43.5202 49.0402C43.5202 48.7845 43.6097 48.5672 43.7887 48.3882C43.9676 48.2092 44.185 48.1197 44.4406 48.1197H57.6336ZM71.6775 54.6395C72.1122 54.6395 72.4701 54.5628 72.7514 54.4094C73.0326 54.2432 73.25 54.0451 73.4034 53.815C73.5696 53.5849 73.6782 53.3356 73.7294 53.0671C73.7933 52.7859 73.8252 52.5302 73.8252 52.3001C73.8252 52.07 73.7933 51.8207 73.7294 51.5522C73.6782 51.271 73.5696 51.0153 73.4034 50.7852C73.25 50.5551 73.0326 50.3633 72.7514 50.2099C72.4701 50.0437 72.1122 49.9606 71.6775 49.9606H63.9305C63.4831 49.9606 63.1187 50.0437 62.8375 50.2099C62.569 50.3633 62.3517 50.5551 62.1855 50.7852C62.0321 51.0153 61.9234 51.271 61.8595 51.5522C61.8084 51.8207 61.7828 52.07 61.7828 52.3001C61.7828 52.5302 61.8084 52.7859 61.8595 53.0671C61.9234 53.3356 62.0321 53.5849 62.1855 53.815C62.3517 54.0451 62.569 54.2432 62.8375 54.4094C63.1187 54.5628 63.4831 54.6395 63.9305 54.6395H71.6775ZM75.6086 52.3001C75.6086 52.7859 75.5255 53.278 75.3593 53.7766C75.2059 54.2624 74.9758 54.7098 74.669 55.1189C74.3622 55.5152 73.9914 55.8412 73.5568 56.0969C73.1221 56.3526 72.6299 56.4804 72.0802 56.4804H63.336C62.8119 56.4804 62.3453 56.3526 61.9362 56.0969C61.5271 55.8412 61.1756 55.5152 60.8815 55.1189C60.6003 54.7098 60.383 54.256 60.2296 53.7574C60.0761 53.2589 59.9994 52.7731 59.9994 52.3001C59.9994 51.8271 60.0761 51.3413 60.2296 50.8427C60.3957 50.3441 60.6322 49.8967 60.9391 49.5004C61.2459 49.0913 61.6166 48.7589 62.0513 48.5033C62.4859 48.2476 62.9781 48.1197 63.5278 48.1197H72.272C72.7833 48.1197 73.2436 48.2476 73.6527 48.5033C74.0745 48.7589 74.4261 49.0913 74.7073 49.5004C75.0014 49.8967 75.2251 50.3441 75.3785 50.8427C75.5319 51.3413 75.6086 51.8271 75.6086 52.3001ZM93.7118 55.56C93.7118 55.8157 93.6223 56.033 93.4433 56.212C93.2644 56.3909 93.047 56.4804 92.7914 56.4804C92.5357 56.4804 92.3183 56.3909 92.1394 56.212C91.9604 56.033 91.8709 55.8157 91.8709 55.56V51.3796C91.8709 50.8555 91.839 50.5934 91.775 50.5934C91.7239 50.5934 91.5449 50.766 91.2381 51.1112L87.0194 55.9051C86.8532 56.0969 86.6487 56.2439 86.4058 56.3462C86.1629 56.4357 85.9008 56.4804 85.6196 56.4804C85.3383 56.4804 85.0763 56.4357 84.8334 56.3462C84.5905 56.2439 84.3859 56.0969 84.2197 55.9051L80.0011 51.1112C79.707 50.766 79.5281 50.5934 79.4641 50.5934C79.4002 50.5934 79.3683 50.8555 79.3683 51.3796V55.56C79.3683 55.8157 79.2788 56.033 79.0998 56.212C78.9208 56.3909 78.7035 56.4804 78.4478 56.4804C78.1921 56.4804 77.9748 56.3909 77.7958 56.212C77.6169 56.033 77.5274 55.8157 77.5274 55.56V49.9606C77.5274 49.4493 77.6744 49.0146 77.9684 48.6567C78.2624 48.2987 78.6651 48.1197 79.1765 48.1197C79.4833 48.1197 79.7582 48.1964 80.0011 48.3499C80.2439 48.5033 80.4677 48.6886 80.6722 48.906L85.0827 53.93C85.1466 53.9939 85.2233 54.0643 85.3128 54.141C85.415 54.2049 85.5173 54.2368 85.6196 54.2368C85.7219 54.2368 85.8177 54.2049 85.9072 54.141C86.0095 54.0643 86.0926 53.9939 86.1565 53.93L90.5478 48.906H90.5669C90.7459 48.6631 90.9632 48.4713 91.2189 48.3307C91.4746 48.1901 91.7559 48.1197 92.0627 48.1197C92.574 48.1197 92.9767 48.2987 93.2707 48.6567C93.5648 49.0146 93.7118 49.4493 93.7118 49.9606V55.56ZM107.314 54.6395C107.749 54.6395 108.106 54.5628 108.388 54.4094C108.669 54.2432 108.886 54.0451 109.04 53.815C109.206 53.5849 109.315 53.3356 109.366 53.0671C109.43 52.7859 109.462 52.5302 109.462 52.3001C109.462 52.07 109.43 51.8207 109.366 51.5522C109.315 51.271 109.206 51.0153 109.04 50.7852C108.886 50.5551 108.669 50.3633 108.388 50.2099C108.106 50.0437 107.749 49.9606 107.314 49.9606H99.5668C99.1194 49.9606 98.755 50.0437 98.4738 50.2099C98.2053 50.3633 97.988 50.5551 97.8218 50.7852C97.6684 51.0153 97.5597 51.271 97.4958 51.5522C97.4447 51.8207 97.4191 52.07 97.4191 52.3001C97.4191 52.5302 97.4447 52.7859 97.4958 53.0671C97.5597 53.3356 97.6684 53.5849 97.8218 53.815C97.988 54.0451 98.2053 54.2432 98.4738 54.4094C98.755 54.5628 99.1194 54.6395 99.5668 54.6395H107.314ZM111.245 52.3001C111.245 52.7859 111.162 53.278 110.996 53.7766C110.842 54.2624 110.612 54.7098 110.305 55.1189C109.998 55.5152 109.628 55.8412 109.193 56.0969C108.758 56.3526 108.266 56.4804 107.717 56.4804H98.9724C98.4482 56.4804 97.9816 56.3526 97.5725 56.0969C97.1634 55.8412 96.8119 55.5152 96.5179 55.1189C96.2366 54.7098 96.0193 54.256 95.8659 53.7574C95.7125 53.2589 95.6358 52.7731 95.6358 52.3001C95.6358 51.8271 95.7125 51.3413 95.8659 50.8427C96.0321 50.3441 96.2686 49.8967 96.5754 49.5004C96.8822 49.0913 97.2529 48.7589 97.6876 48.5033C98.1222 48.2476 98.6144 48.1197 99.1641 48.1197H107.908C108.42 48.1197 108.88 48.2476 109.289 48.5033C109.711 48.7589 110.062 49.0913 110.344 49.5004C110.638 49.8967 110.861 50.3441 111.015 50.8427C111.168 51.3413 111.245 51.8271 111.245 52.3001ZM125.494 53.2205C125.839 53.4378 126.19 53.6743 126.548 53.93C126.906 54.1729 127.271 54.4414 127.641 54.7354C127.782 54.8377 127.904 54.9591 128.006 55.0998C128.108 55.2276 128.159 55.381 128.159 55.56C128.159 55.8157 128.07 56.033 127.891 56.212C127.712 56.3909 127.494 56.4804 127.239 56.4804C127.136 56.4804 127.028 56.4548 126.913 56.4037C126.798 56.3526 126.689 56.2887 126.587 56.212C126.063 55.8284 125.526 55.4577 124.976 55.0998C124.426 54.729 123.851 54.4094 123.25 54.141C122.662 53.8597 122.049 53.636 121.409 53.4698C120.77 53.3036 120.105 53.2205 119.415 53.2205H115.599C115.433 53.2461 115.292 53.3228 115.177 53.4506C115.062 53.5785 115.005 53.7383 115.005 53.93V55.56C115.005 55.8157 114.909 56.033 114.717 56.212C114.538 56.3909 114.327 56.4804 114.084 56.4804C113.828 56.4804 113.611 56.3909 113.432 56.212C113.253 56.033 113.164 55.8157 113.164 55.56V53.7191C113.164 53.3995 113.221 53.0991 113.336 52.8178C113.464 52.5238 113.63 52.2745 113.835 52.07C114.039 51.8526 114.282 51.6864 114.564 51.5714C114.845 51.4436 115.152 51.3796 115.484 51.3796H125.647C125.839 51.3796 126.005 51.3157 126.146 51.1879C126.299 51.0473 126.376 50.8747 126.376 50.6701C126.376 50.4784 126.299 50.3122 126.146 50.1716C126.005 50.0309 125.839 49.9606 125.647 49.9606H114.084C113.828 49.9606 113.611 49.8711 113.432 49.6922C113.253 49.5132 113.164 49.2959 113.164 49.0402C113.164 48.7845 113.253 48.5672 113.432 48.3882C113.611 48.2092 113.828 48.1197 114.084 48.1197H125.57C125.928 48.1197 126.261 48.1901 126.568 48.3307C126.887 48.4585 127.162 48.6375 127.392 48.8676C127.635 49.0977 127.82 49.3662 127.948 49.673C128.089 49.9798 128.159 50.3122 128.159 50.6701C128.159 51.0281 128.089 51.3605 127.948 51.6673C127.82 51.9741 127.635 52.2426 127.392 52.4727C127.162 52.7028 126.887 52.8881 126.568 53.0288C126.261 53.1566 125.928 53.2205 125.57 53.2205H125.494ZM142.404 53.2205C142.749 53.4378 143.101 53.6743 143.459 53.93C143.816 54.1729 144.181 54.4414 144.552 54.7354C144.692 54.8377 144.814 54.9591 144.916 55.0998C145.018 55.2276 145.069 55.381 145.069 55.56C145.069 55.8157 144.98 56.033 144.801 56.212C144.622 56.3909 144.405 56.4804 144.149 56.4804C144.047 56.4804 143.938 56.4548 143.823 56.4037C143.708 56.3526 143.599 56.2887 143.497 56.212C142.973 55.8284 142.436 55.4577 141.886 55.0998C141.336 54.729 140.761 54.4094 140.16 54.141C139.572 53.8597 138.959 53.636 138.319 53.4698C137.68 53.3036 137.015 53.2205 136.325 53.2205H132.509C132.343 53.2461 132.202 53.3228 132.087 53.4506C131.972 53.5785 131.915 53.7383 131.915 53.93V55.56C131.915 55.8157 131.819 56.033 131.627 56.212C131.448 56.3909 131.237 56.4804 130.994 56.4804C130.739 56.4804 130.521 56.3909 130.342 56.212C130.163 56.033 130.074 55.8157 130.074 55.56V53.7191C130.074 53.3995 130.131 53.0991 130.246 52.8178C130.374 52.5238 130.54 52.2745 130.745 52.07C130.95 51.8526 131.192 51.6864 131.474 51.5714C131.755 51.4436 132.062 51.3796 132.394 51.3796H142.557C142.749 51.3796 142.915 51.3157 143.056 51.1879C143.209 51.0473 143.286 50.8747 143.286 50.6701C143.286 50.4784 143.209 50.3122 143.056 50.1716C142.915 50.0309 142.749 49.9606 142.557 49.9606H130.994C130.739 49.9606 130.521 49.8711 130.342 49.6922C130.163 49.5132 130.074 49.2959 130.074 49.0402C130.074 48.7845 130.163 48.5672 130.342 48.3882C130.521 48.2092 130.739 48.1197 130.994 48.1197H142.481C142.839 48.1197 143.171 48.1901 143.478 48.3307C143.797 48.4585 144.072 48.6375 144.302 48.8676C144.545 49.0977 144.731 49.3662 144.858 49.673C144.999 49.9798 145.069 50.3122 145.069 50.6701C145.069 51.0281 144.999 51.3605 144.858 51.6673C144.731 51.9741 144.545 52.2426 144.302 52.4727C144.072 52.7028 143.797 52.8881 143.478 53.0288C143.171 53.1566 142.839 53.2205 142.481 53.2205H142.404ZM158.662 54.6395C159.096 54.6395 159.454 54.5628 159.736 54.4094C160.017 54.2432 160.234 54.0451 160.388 53.815C160.554 53.5849 160.662 53.3356 160.714 53.0671C160.778 52.7859 160.809 52.5302 160.809 52.3001C160.809 52.07 160.778 51.8207 160.714 51.5522C160.662 51.271 160.554 51.0153 160.388 50.7852C160.234 50.5551 160.017 50.3633 159.736 50.2099C159.454 50.0437 159.096 49.9606 158.662 49.9606H150.915C150.467 49.9606 150.103 50.0437 149.822 50.2099C149.553 50.3633 149.336 50.5551 149.17 50.7852C149.016 51.0153 148.908 51.271 148.844 51.5522C148.793 51.8207 148.767 52.07 148.767 52.3001C148.767 52.5302 148.793 52.7859 148.844 53.0671C148.908 53.3356 149.016 53.5849 149.17 53.815C149.336 54.0451 149.553 54.2432 149.822 54.4094C150.103 54.5628 150.467 54.6395 150.915 54.6395H158.662ZM162.593 52.3001C162.593 52.7859 162.51 53.278 162.344 53.7766C162.19 54.2624 161.96 54.7098 161.653 55.1189C161.346 55.5152 160.976 55.8412 160.541 56.0969C160.106 56.3526 159.614 56.4804 159.064 56.4804H150.32C149.796 56.4804 149.33 56.3526 148.92 56.0969C148.511 55.8412 148.16 55.5152 147.866 55.1189C147.585 54.7098 147.367 54.256 147.214 53.7574C147.06 53.2589 146.984 52.7731 146.984 52.3001C146.984 51.8271 147.06 51.3413 147.214 50.8427C147.38 50.3441 147.617 49.8967 147.923 49.5004C148.23 49.0913 148.601 48.7589 149.036 48.5033C149.47 48.2476 149.962 48.1197 150.512 48.1197H159.256C159.768 48.1197 160.228 48.2476 160.637 48.5033C161.059 48.7589 161.41 49.0913 161.692 49.5004C161.986 49.8967 162.209 50.3441 162.363 50.8427C162.516 51.3413 162.593 51.8271 162.593 52.3001ZM164.512 49.0402C164.512 48.7845 164.601 48.5672 164.78 48.3882C164.959 48.2092 165.176 48.1197 165.432 48.1197C165.688 48.1197 165.905 48.2092 166.084 48.3882C166.263 48.5672 166.353 48.7845 166.353 49.0402V52.3001C166.353 52.5302 166.378 52.7859 166.429 53.0671C166.493 53.3356 166.602 53.5849 166.755 53.815C166.921 54.0451 167.139 54.2432 167.407 54.4094C167.688 54.5628 168.053 54.6395 168.5 54.6395H172.949C172.744 54.2816 172.591 53.9045 172.489 53.5082C172.387 53.0991 172.335 52.6964 172.335 52.3001V49.0402C172.335 48.7845 172.425 48.5672 172.604 48.3882C172.783 48.2092 173 48.1197 173.256 48.1197C173.511 48.1197 173.729 48.2092 173.908 48.3882C174.087 48.5672 174.176 48.7845 174.176 49.0402V52.3001C174.176 52.5302 174.202 52.7795 174.253 53.0479C174.317 53.3164 174.419 53.5721 174.56 53.815C174.713 54.0451 174.918 54.2432 175.173 54.4094C175.442 54.5628 175.781 54.6395 176.19 54.6395H178.011C178.446 54.6395 178.804 54.5628 179.085 54.4094C179.367 54.2432 179.584 54.0451 179.737 53.815C179.903 53.5849 180.012 53.3356 180.063 53.0671C180.127 52.7859 180.159 52.5302 180.159 52.3001V49.0402C180.159 48.7845 180.249 48.5672 180.428 48.3882C180.607 48.2092 180.824 48.1197 181.08 48.1197C181.335 48.1197 181.553 48.2092 181.732 48.3882C181.911 48.5672 182 48.7845 182 49.0402V52.3001C182 52.7859 181.917 53.278 181.751 53.7766C181.597 54.2624 181.367 54.7098 181.06 55.1189C180.754 55.5152 180.383 55.8412 179.948 56.0969C179.514 56.3526 179.021 56.4804 178.472 56.4804H167.848C167.324 56.4804 166.857 56.3526 166.448 56.0969C166.039 55.8412 165.688 55.5152 165.394 55.1189C165.112 54.7098 164.895 54.2624 164.742 53.7766C164.588 53.278 164.512 52.7859 164.512 52.3001V49.0402Z" fill="white"/>
<path d="M136.414 29.2884C134.737 30.9648 134.737 33.6827 136.414 35.359C138.09 37.0354 140.808 37.0354 142.484 35.359C144.161 33.6827 144.161 30.9648 142.484 29.2884C140.808 27.6121 138.09 27.6121 136.414 29.2884Z" fill="white"/>
<path d="M181.773 18.3242L154.846 31.4119L142.209 32.4125L153.004 27.7826L181.773 18.3242Z" fill="white"/>
<path d="M176.246 8.84619L150.734 22.8913L142.551 31.8231L152.323 25.9122L176.246 8.84619Z" fill="white"/>
<path d="M167.766 18.0933L159.094 22.6784L156.337 25.6388L159.656 23.7038L167.766 18.0933Z" fill="white"/>
</svg>
